<?xml version="1.0" encoding="UTF-8"?>
<svg version="1.1" xmlns="http://www.w3.org/2000/svg" width="1600" height="1600">
<path d="M0 0 C1.31255826 -0.00205263 2.62511652 -0.00410527 3.97744927 -0.0062201 C7.60287468 -0.01174316 11.22827627 -0.01112241 14.85370452 -0.00944251 C18.80498277 -0.00870744 22.75625453 -0.01374365 26.70752996 -0.01801753 C34.53658203 -0.02557585 42.36562727 -0.02778949 50.19468261 -0.02834659 C59.576088 -0.02926239 68.95748712 -0.0359364 78.33888981 -0.04269341 C101.01202179 -0.05873449 123.68515309 -0.06465479 146.35828973 -0.06944216 C157.0913209 -0.07178026 167.82435154 -0.07538318 178.5573823 -0.07913754 C215.32120559 -0.09197211 252.08502858 -0.10269079 288.84885406 -0.10614014 C291.1556394 -0.10636177 293.46242473 -0.10658355 295.76921007 -0.10680549 C298.08146778 -0.10702613 300.3937255 -0.10724661 302.70598322 -0.10746694 C307.34452093 -0.10790948 311.98305863 -0.1083566 316.62159634 -0.10880661 C318.34672101 -0.1089707 318.34672101 -0.1089707 320.10669668 -0.1091381 C357.37818552 -0.1127668 394.64965488 -0.12868029 431.92113626 -0.15199697 C471.35647457 -0.17662208 510.79180177 -0.19031424 550.227148 -0.19150805 C554.56066668 -0.1916795 558.89418537 -0.19189492 563.22770405 -0.19214249 C564.29468409 -0.19219826 565.36166414 -0.19225402 566.46097692 -0.19231148 C583.59367829 -0.19345967 600.72635959 -0.20446194 617.8590542 -0.21902954 C635.09805661 -0.23343343 652.33703344 -0.23660964 669.57604022 -0.22858956 C679.80177543 -0.22415144 690.02742779 -0.22792069 700.25315203 -0.24382807 C707.1033752 -0.25364436 713.95354092 -0.25233706 720.80376368 -0.24239184 C724.69398821 -0.23704722 728.58405473 -0.23613334 732.47426558 -0.24890056 C767.70814038 -0.35703605 801.72662622 3.92220821 835.51100063 14.13142776 C836.80699184 14.5215303 836.80699184 14.5215303 838.1291647 14.9195137 C885.24128056 29.33007104 928.88869517 55.03435355 964.83131313 88.63924026 C967.28560413 90.92180244 969.7893205 93.12605135 972.32350063 95.31892776 C975.80533438 98.39297918 978.84412064 101.66500557 981.83912563 105.20955276 C983.44541697 107.0560372 985.12417677 108.74675799 986.88600063 110.44392776 C991.50475176 115.00095838 995.48203485 120.0551977 999.51100063 125.13142776 C1000.61701626 126.49461136 1000.61701626 126.49461136 1001.74537563 127.88533401 C1045.81694264 183.41846627 1073.74731326 255.34134248 1073.6424284 326.62042713 C1073.64550735 328.58926452 1073.64550735 328.58926452 1073.6486485 330.5978764 C1073.65417156 334.22330181 1073.65355081 337.8487034 1073.65187091 341.47413165 C1073.65113583 345.4254099 1073.65617205 349.37668166 1073.66044593 353.32795709 C1073.66800425 361.15700916 1073.67021788 368.9860544 1073.67077498 376.81510974 C1073.67169079 386.19651513 1073.6783648 395.57791425 1073.68512181 404.95931694 C1073.70116289 427.63244893 1073.70708319 450.30558022 1073.71187056 472.97871686 C1073.71420866 483.71174803 1073.71781157 494.44477867 1073.72156593 505.17780943 C1073.73440051 541.94163272 1073.74511918 578.70545571 1073.74856853 615.4692812 C1073.74879016 617.77606653 1073.74901195 620.08285186 1073.74923389 622.3896372 C1073.74945452 624.70189492 1073.74967501 627.01415263 1073.74989533 629.32641035 C1073.75033788 633.96494806 1073.750785 638.60348576 1073.75123501 643.24202347 C1073.7513444 644.39210658 1073.75145379 645.5421897 1073.7515665 646.72712381 C1073.7551952 683.99861265 1073.77110869 721.27008201 1073.79442537 758.54156339 C1073.81905048 797.97690171 1073.83274264 837.4122289 1073.83393645 876.84757513 C1073.8341079 881.18109381 1073.83432332 885.5146125 1073.83457088 889.84813118 C1073.83462665 890.91511123 1073.83468242 891.98209127 1073.83473988 893.08140405 C1073.83588807 910.21410542 1073.84689034 927.34678672 1073.86145794 944.47948133 C1073.87586183 961.71848374 1073.87903804 978.95746057 1073.87101796 996.19646735 C1073.86657983 1006.42220256 1073.87034908 1016.64785492 1073.88625647 1026.87357916 C1073.89607276 1033.72380233 1073.89476546 1040.57396805 1073.88482024 1047.42419081 C1073.87947562 1051.31441535 1073.87856174 1055.20448187 1073.89132896 1059.09469271 C1073.99946445 1094.32856751 1069.72022019 1128.34705335 1059.51100063 1162.13142776 C1059.12089809 1163.42741898 1059.12089809 1163.42741898 1058.7229147 1164.74959183 C1050.91059827 1190.29022484 1039.73481745 1215.48108593 1025.34693813 1238.00252151 C1021.17669587 1245.10967907 1018.20181181 1252.87744487 1015.16334438 1260.52205276 C1007.04841249 1280.48999014 995.06285384 1299.26585876 981.36256313 1315.86970901 C978.7929648 1319.00852217 976.3773023 1322.25998041 973.95631313 1325.51424026 C973.47936001 1326.04791214 973.00240688 1326.58158401 972.51100063 1327.13142776 C971.85100063 1327.13142776 971.19100063 1327.13142776 970.51100063 1327.13142776 C970.24924038 1327.7177095 969.98748013 1328.30399124 969.71778774 1328.90803909 C968.44352872 1331.25573825 967.08361186 1332.81724666 965.20240688 1334.70564651 C964.21397793 1335.7002388 964.21397793 1335.7002388 963.20558071 1336.71492386 C962.50199429 1337.40924515 961.79840786 1338.10356644 961.07350063 1338.81892776 C960.34993374 1339.53645218 959.62636684 1340.25397659 958.88087368 1340.99324417 C953.34741734 1346.42528762 947.66472069 1351.40672833 941.51100063 1356.13142776 C940.50939907 1356.92677933 939.50779751 1357.72213089 938.47584438 1358.54158401 C932.78859981 1363.03431527 926.96915098 1367.28316691 920.94850063 1371.31892776 C920.38421352 1371.6984761 919.81992641 1372.07802444 919.2385397 1372.46907425 C918.0812408 1373.23293721 916.91427781 1373.98234998 915.73834133 1374.71719742 C914.12835359 1375.73944495 912.54271869 1376.80039228 910.97366238 1377.88441849 C903.10204142 1383.00218673 897.19376954 1384.08117492 887.91725063 1383.82283401 C886.64990078 1383.82089539 885.38255093 1383.81895676 884.07679653 1383.81695938 C880.05377133 1383.80906207 876.03340773 1383.75736045 872.01100063 1383.69392776 C854.90360363 1383.43865543 839.59869091 1383.40141241 823.43244839 1389.43571854 C819.37067784 1390.90638629 815.15921171 1391.82149088 810.94850063 1392.75642776 C809.62519741 1393.0537178 809.62519741 1393.0537178 808.27516079 1393.3570137 C788.1092696 1397.71739495 767.65239947 1400.29321249 747.02200127 1400.26285553 C745.70944301 1400.26490816 744.39688475 1400.2669608 743.044552 1400.26907563 C739.41912659 1400.27459869 735.793725 1400.27397794 732.16829675 1400.27229804 C728.21701849 1400.27156297 724.26574674 1400.27659918 720.3144713 1400.28087306 C712.48541924 1400.28843138 704.656374 1400.29064502 696.82731866 1400.29120212 C687.44591327 1400.29211792 678.06451414 1400.29879193 668.68311146 1400.30554894 C646.00997947 1400.32159002 623.33684818 1400.32751032 600.66371154 1400.33229769 C589.93068036 1400.33463579 579.19764973 1400.33823871 568.46461897 1400.34199307 C531.70079568 1400.35482764 494.93697268 1400.36554632 458.1731472 1400.36899567 C455.86636187 1400.3692173 453.55957653 1400.36943908 451.2527912 1400.36966102 C448.94053348 1400.36988166 446.62827576 1400.37010214 444.31601804 1400.37032247 C439.67748034 1400.37076501 435.03894263 1400.37121213 430.40040493 1400.37166214 C429.25032182 1400.37177153 428.1002387 1400.37188092 426.91530458 1400.37199363 C389.64381575 1400.37562233 352.37234639 1400.39153582 315.10086501 1400.4148525 C275.66552669 1400.43947761 236.2301995 1400.45316977 196.79485327 1400.45436358 C192.46133458 1400.45453503 188.1278159 1400.45475045 183.79429722 1400.45499802 C182.72731717 1400.45505379 181.66033713 1400.45510955 180.56102435 1400.45516701 C163.42832298 1400.4563152 146.29564167 1400.46731747 129.16294707 1400.48188507 C111.92394466 1400.49628896 94.68496783 1400.49946517 77.44596105 1400.49144509 C67.22022583 1400.48700696 56.99457348 1400.49077622 46.76884924 1400.5066836 C39.91862606 1400.51649989 33.06846035 1400.51519259 26.21823758 1400.50524737 C22.32801305 1400.49990275 18.43794653 1400.49898887 14.54773568 1400.51175609 C-20.83491552 1400.62034819 -57.79875146 1397.58076441 -91.26503086 1385.09579849 C-94.52729358 1384.119973 -96.97327685 1383.92493405 -100.3605814 1384.0030098 C-101.4968195 1384.02187241 -102.63305759 1384.04073502 -103.80372715 1384.06016922 C-105.02244511 1384.08626266 -106.24116306 1384.11235611 -107.49681187 1384.13924026 C-110.12054267 1384.1579417 -112.74415201 1384.1736519 -115.36790562 1384.18611526 C-119.47147055 1384.20946155 -123.57266236 1384.24926624 -127.67503452 1384.35408401 C-146.67181085 1384.81508747 -159.34788023 1382.89132995 -174.48899937 1371.13142776 C-176.02071193 1370.01560839 -177.55625043 1368.90502084 -179.09568882 1367.7998848 C-182.3988661 1365.42049345 -185.62631353 1362.96040883 -188.82444859 1360.44197464 C-190.28778298 1359.28985099 -191.76434376 1358.15456823 -193.24290562 1357.02205276 C-203.89079812 1348.74985377 -214.56063538 1339.24889666 -223.48899937 1329.13142776 C-223.48899937 1328.47142776 -223.48899937 1327.81142776 -223.48899937 1327.13142776 C-224.14899937 1327.13142776 -224.80899937 1327.13142776 -225.48899937 1327.13142776 C-228.7729305 1323.71706012 -231.59383208 1319.87727147 -234.48899937 1316.13142776 C-235.03765659 1315.42389359 -235.58631382 1314.71635941 -236.15159702 1313.9873848 C-256.71156499 1287.28960308 -256.71156499 1287.28960308 -257.06712437 1271.30720901 C-257.68328228 1266.6689092 -259.82727284 1264.50311805 -262.91868687 1261.12361526 C-304.65629583 1212.5354565 -326.71324621 1136.72167975 -326.62042713 1073.6424284 C-326.62247977 1072.32987014 -326.6245324 1071.01731188 -326.62664723 1069.66497913 C-326.6321703 1066.03955372 -326.63154955 1062.41415213 -326.62986964 1058.78872388 C-326.62913457 1054.83744563 -326.63417078 1050.88617387 -326.63844466 1046.93489844 C-326.64600298 1039.10584637 -326.64821662 1031.27680113 -326.64877372 1023.44774579 C-326.64968952 1014.0663404 -326.65636353 1004.68494127 -326.66312054 995.30353859 C-326.67916162 972.6304066 -326.68508192 949.95727531 -326.68986929 927.28413867 C-326.69220739 916.5511075 -326.69581031 905.81807686 -326.69956467 895.0850461 C-326.71239924 858.32122281 -326.72311792 821.55739982 -326.72656727 784.79357433 C-326.7267889 782.486789 -326.72701068 780.18000367 -326.72723262 777.87321833 C-326.72745326 775.56096061 -326.72767374 773.24870289 -326.72789407 770.93644518 C-326.72833661 766.29790747 -326.72878373 761.65936977 -326.72923374 757.02083206 C-326.72934313 755.87074895 -326.72945252 754.72066583 -326.72956523 753.53573172 C-326.73319393 716.26424288 -326.74910742 678.99277352 -326.77242411 641.72129214 C-326.79704921 602.28595382 -326.81074137 562.85062663 -326.81193519 523.4152804 C-326.81210663 519.08176172 -326.81232205 514.74824303 -326.81256962 510.41472435 C-326.81262539 509.3477443 -326.81268116 508.28076426 -326.81273861 507.18145148 C-326.8138868 490.04875011 -326.82488907 472.91606881 -326.83945667 455.7833742 C-326.85386057 438.54437179 -326.85703677 421.30539496 -326.8490167 404.06638818 C-326.84457857 393.84065297 -326.84834782 383.61500061 -326.8642552 373.38927637 C-326.87407149 366.5390532 -326.87276419 359.68888748 -326.86281897 352.83866472 C-326.85747435 348.94844018 -326.85656048 345.05837366 -326.86932769 341.16816282 C-326.97746318 305.93428802 -322.69821892 271.91580218 -312.48899937 238.13142776 C-312.22893101 237.26743362 -311.96886265 236.40343948 -311.70091343 235.5132637 C-297.30251441 188.44089677 -271.6247275 144.79384668 -238.04759312 108.87752151 C-235.58250129 106.23178173 -233.18982937 103.533867 -230.80149937 100.81892776 C-227.63658372 97.29677296 -224.3719399 94.12950939 -220.75071812 91.08455276 C-218.48884442 89.13129396 -216.32630107 87.09106989 -214.16258335 85.03035355 C-158.40650129 32.29062568 -76.66646477 -0.11281222 0 0 Z " fill="#FDFEFE" transform="translate(426.48899936676025,99.86857223510742)"/>
<path d="M0 0 C1.31255826 -0.00205263 2.62511652 -0.00410527 3.97744927 -0.0062201 C7.60287468 -0.01174316 11.22827627 -0.01112241 14.85370452 -0.00944251 C18.80498277 -0.00870744 22.75625453 -0.01374365 26.70752996 -0.01801753 C34.53658203 -0.02557585 42.36562727 -0.02778949 50.19468261 -0.02834659 C59.576088 -0.02926239 68.95748712 -0.0359364 78.33888981 -0.04269341 C101.01202179 -0.05873449 123.68515309 -0.06465479 146.35828973 -0.06944216 C157.0913209 -0.07178026 167.82435154 -0.07538318 178.5573823 -0.07913754 C215.32120559 -0.09197211 252.08502858 -0.10269079 288.84885406 -0.10614014 C291.1556394 -0.10636177 293.46242473 -0.10658355 295.76921007 -0.10680549 C298.08146778 -0.10702613 300.3937255 -0.10724661 302.70598322 -0.10746694 C307.34452093 -0.10790948 311.98305863 -0.1083566 316.62159634 -0.10880661 C318.34672101 -0.1089707 318.34672101 -0.1089707 320.10669668 -0.1091381 C357.37818552 -0.1127668 394.64965488 -0.12868029 431.92113626 -0.15199697 C471.35647457 -0.17662208 510.79180177 -0.19031424 550.227148 -0.19150805 C554.56066668 -0.1916795 558.89418537 -0.19189492 563.22770405 -0.19214249 C564.29468409 -0.19219826 565.36166414 -0.19225402 566.46097692 -0.19231148 C583.59367829 -0.19345967 600.72635959 -0.20446194 617.8590542 -0.21902954 C635.09805661 -0.23343343 652.33703344 -0.23660964 669.57604022 -0.22858956 C679.80177543 -0.22415144 690.02742779 -0.22792069 700.25315203 -0.24382807 C707.1033752 -0.25364436 713.95354092 -0.25233706 720.80376368 -0.24239184 C724.69398821 -0.23704722 728.58405473 -0.23613334 732.47426558 -0.24890056 C767.70814038 -0.35703605 801.72662622 3.92220821 835.51100063 14.13142776 C836.80699184 14.5215303 836.80699184 14.5215303 838.1291647 14.9195137 C885.24128056 29.33007104 928.88869517 55.03435355 964.83131313 88.63924026 C967.28560413 90.92180244 969.7893205 93.12605135 972.32350063 95.31892776 C975.80533438 98.39297918 978.84412064 101.66500557 981.83912563 105.20955276 C983.44541697 107.0560372 985.12417677 108.74675799 986.88600063 110.44392776 C991.50475176 115.00095838 995.48203485 120.0551977 999.51100063 125.13142776 C1000.61701626 126.49461136 1000.61701626 126.49461136 1001.74537563 127.88533401 C1045.81694264 183.41846627 1073.74731326 255.34134248 1073.6424284 326.62042713 C1073.64550735 328.58926452 1073.64550735 328.58926452 1073.6486485 330.5978764 C1073.65417156 334.22330181 1073.65355081 337.8487034 1073.65187091 341.47413165 C1073.65113583 345.4254099 1073.65617205 349.37668166 1073.66044593 353.32795709 C1073.66800425 361.15700916 1073.67021788 368.9860544 1073.67077498 376.81510974 C1073.67169079 386.19651513 1073.6783648 395.57791425 1073.68512181 404.95931694 C1073.70116289 427.63244893 1073.70708319 450.30558022 1073.71187056 472.97871686 C1073.71420866 483.71174803 1073.71781157 494.44477867 1073.72156593 505.17780943 C1073.73440051 541.94163272 1073.74511918 578.70545571 1073.74856853 615.4692812 C1073.74879016 617.77606653 1073.74901195 620.08285186 1073.74923389 622.3896372 C1073.74945452 624.70189492 1073.74967501 627.01415263 1073.74989533 629.32641035 C1073.75033788 633.96494806 1073.750785 638.60348576 1073.75123501 643.24202347 C1073.7513444 644.39210658 1073.75145379 645.5421897 1073.7515665 646.72712381 C1073.7551952 683.99861265 1073.77110869 721.27008201 1073.79442537 758.54156339 C1073.81905048 797.97690171 1073.83274264 837.4122289 1073.83393645 876.84757513 C1073.8341079 881.18109381 1073.83432332 885.5146125 1073.83457088 889.84813118 C1073.83462665 890.91511123 1073.83468242 891.98209127 1073.83473988 893.08140405 C1073.83588807 910.21410542 1073.84689034 927.34678672 1073.86145794 944.47948133 C1073.87586183 961.71848374 1073.87903804 978.95746057 1073.87101796 996.19646735 C1073.86657983 1006.42220256 1073.87034908 1016.64785492 1073.88625647 1026.87357916 C1073.89607276 1033.72380233 1073.89476546 1040.57396805 1073.88482024 1047.42419081 C1073.87947562 1051.31441535 1073.87856174 1055.20448187 1073.89132896 1059.09469271 C1073.99946445 1094.32856751 1069.72022019 1128.34705335 1059.51100063 1162.13142776 C1059.12089809 1163.42741898 1059.12089809 1163.42741898 1058.7229147 1164.74959183 C1050.91059827 1190.29022484 1039.73481745 1215.48108593 1025.34693813 1238.00252151 C1021.17669587 1245.10967907 1018.20181181 1252.87744487 1015.16334438 1260.52205276 C1007.04841249 1280.48999014 995.06285384 1299.26585876 981.36256313 1315.86970901 C978.7929648 1319.00852217 976.3773023 1322.25998041 973.95631313 1325.51424026 C973.47936001 1326.04791214 973.00240688 1326.58158401 972.51100063 1327.13142776 C971.85100063 1327.13142776 971.19100063 1327.13142776 970.51100063 1327.13142776 C970.24924038 1327.7177095 969.98748013 1328.30399124 969.71778774 1328.90803909 C968.44352872 1331.25573825 967.08361186 1332.81724666 965.20240688 1334.70564651 C964.21397793 1335.7002388 964.21397793 1335.7002388 963.20558071 1336.71492386 C962.50199429 1337.40924515 961.79840786 1338.10356644 961.07350063 1338.81892776 C960.34993374 1339.53645218 959.62636684 1340.25397659 958.88087368 1340.99324417 C953.34741734 1346.42528762 947.66472069 1351.40672833 941.51100063 1356.13142776 C940.50939907 1356.92677933 939.50779751 1357.72213089 938.47584438 1358.54158401 C932.78859981 1363.03431527 926.96915098 1367.28316691 920.94850063 1371.31892776 C920.38421352 1371.6984761 919.81992641 1372.07802444 919.2385397 1372.46907425 C918.0812408 1373.23293721 916.91427781 1373.98234998 915.73834133 1374.71719742 C914.12835359 1375.73944495 912.54271869 1376.80039228 910.97366238 1377.88441849 C903.10204142 1383.00218673 897.19376954 1384.08117492 887.91725063 1383.82283401 C886.64990078 1383.82089539 885.38255093 1383.81895676 884.07679653 1383.81695938 C880.05377133 1383.80906207 876.03340773 1383.75736045 872.01100063 1383.69392776 C854.90360363 1383.43865543 839.59869091 1383.40141241 823.43244839 1389.43571854 C819.37067784 1390.90638629 815.15921171 1391.82149088 810.94850063 1392.75642776 C809.62519741 1393.0537178 809.62519741 1393.0537178 808.27516079 1393.3570137 C788.1092696 1397.71739495 767.65239947 1400.29321249 747.02200127 1400.26285553 C745.70944301 1400.26490816 744.39688475 1400.2669608 743.044552 1400.26907563 C739.41912659 1400.27459869 735.793725 1400.27397794 732.16829675 1400.27229804 C728.21701849 1400.27156297 724.26574674 1400.27659918 720.3144713 1400.28087306 C712.48541924 1400.28843138 704.656374 1400.29064502 696.82731866 1400.29120212 C687.44591327 1400.29211792 678.06451414 1400.29879193 668.68311146 1400.30554894 C646.00997947 1400.32159002 623.33684818 1400.32751032 600.66371154 1400.33229769 C589.93068036 1400.33463579 579.19764973 1400.33823871 568.46461897 1400.34199307 C531.70079568 1400.35482764 494.93697268 1400.36554632 458.1731472 1400.36899567 C455.86636187 1400.3692173 453.55957653 1400.36943908 451.2527912 1400.36966102 C448.94053348 1400.36988166 446.62827576 1400.37010214 444.31601804 1400.37032247 C439.67748034 1400.37076501 435.03894263 1400.37121213 430.40040493 1400.37166214 C429.25032182 1400.37177153 428.1002387 1400.37188092 426.91530458 1400.37199363 C389.64381575 1400.37562233 352.37234639 1400.39153582 315.10086501 1400.4148525 C275.66552669 1400.43947761 236.2301995 1400.45316977 196.79485327 1400.45436358 C192.46133458 1400.45453503 188.1278159 1400.45475045 183.79429722 1400.45499802 C182.72731717 1400.45505379 181.66033713 1400.45510955 180.56102435 1400.45516701 C163.42832298 1400.4563152 146.29564167 1400.46731747 129.16294707 1400.48188507 C111.92394466 1400.49628896 94.68496783 1400.49946517 77.44596105 1400.49144509 C67.22022583 1400.48700696 56.99457348 1400.49077622 46.76884924 1400.5066836 C39.91862606 1400.51649989 33.06846035 1400.51519259 26.21823758 1400.50524737 C22.32801305 1400.49990275 18.43794653 1400.49898887 14.54773568 1400.51175609 C-20.83491552 1400.62034819 -57.79875146 1397.58076441 -91.26503086 1385.09579849 C-94.52729358 1384.119973 -96.97327685 1383.92493405 -100.3605814 1384.0030098 C-101.4968195 1384.02187241 -102.63305759 1384.04073502 -103.80372715 1384.06016922 C-105.02244511 1384.08626266 -106.24116306 1384.11235611 -107.49681187 1384.13924026 C-110.12054267 1384.1579417 -112.74415201 1384.1736519 -115.36790562 1384.18611526 C-119.47147055 1384.20946155 -123.57266236 1384.24926624 -127.67503452 1384.35408401 C-146.67181085 1384.81508747 -159.34788023 1382.89132995 -174.48899937 1371.13142776 C-176.02071193 1370.01560839 -177.55625043 1368.90502084 -179.09568882 1367.7998848 C-182.3988661 1365.42049345 -185.62631353 1362.96040883 -188.82444859 1360.44197464 C-190.28778298 1359.28985099 -191.76434376 1358.15456823 -193.24290562 1357.02205276 C-203.89079812 1348.74985377 -214.56063538 1339.24889666 -223.48899937 1329.13142776 C-223.48899937 1328.47142776 -223.48899937 1327.81142776 -223.48899937 1327.13142776 C-224.14899937 1327.13142776 -224.80899937 1327.13142776 -225.48899937 1327.13142776 C-228.7729305 1323.71706012 -231.59383208 1319.87727147 -234.48899937 1316.13142776 C-235.03765659 1315.42389359 -235.58631382 1314.71635941 -236.15159702 1313.9873848 C-256.71156499 1287.28960308 -256.71156499 1287.28960308 -257.06712437 1271.30720901 C-257.68328228 1266.6689092 -259.82727284 1264.50311805 -262.91868687 1261.12361526 C-304.65629583 1212.5354565 -326.71324621 1136.72167975 -326.62042713 1073.6424284 C-326.62247977 1072.32987014 -326.6245324 1071.01731188 -326.62664723 1069.66497913 C-326.6321703 1066.03955372 -326.63154955 1062.41415213 -326.62986964 1058.78872388 C-326.62913457 1054.83744563 -326.63417078 1050.88617387 -326.63844466 1046.93489844 C-326.64600298 1039.10584637 -326.64821662 1031.27680113 -326.64877372 1023.44774579 C-326.64968952 1014.0663404 -326.65636353 1004.68494127 -326.66312054 995.30353859 C-326.67916162 972.6304066 -326.68508192 949.95727531 -326.68986929 927.28413867 C-326.69220739 916.5511075 -326.69581031 905.81807686 -326.69956467 895.0850461 C-326.71239924 858.32122281 -326.72311792 821.55739982 -326.72656727 784.79357433 C-326.7267889 782.486789 -326.72701068 780.18000367 -326.72723262 777.87321833 C-326.72745326 775.56096061 -326.72767374 773.24870289 -326.72789407 770.93644518 C-326.72833661 766.29790747 -326.72878373 761.65936977 -326.72923374 757.02083206 C-326.72934313 755.87074895 -326.72945252 754.72066583 -326.72956523 753.53573172 C-326.73319393 716.26424288 -326.74910742 678.99277352 -326.77242411 641.72129214 C-326.79704921 602.28595382 -326.81074137 562.85062663 -326.81193519 523.4152804 C-326.81210663 519.08176172 -326.81232205 514.74824303 -326.81256962 510.41472435 C-326.81262539 509.3477443 -326.81268116 508.28076426 -326.81273861 507.18145148 C-326.8138868 490.04875011 -326.82488907 472.91606881 -326.83945667 455.7833742 C-326.85386057 438.54437179 -326.85703677 421.30539496 -326.8490167 404.06638818 C-326.84457857 393.84065297 -326.84834782 383.61500061 -326.8642552 373.38927637 C-326.87407149 366.5390532 -326.87276419 359.68888748 -326.86281897 352.83866472 C-326.85747435 348.94844018 -326.85656048 345.05837366 -326.86932769 341.16816282 C-326.97746318 305.93428802 -322.69821892 271.91580218 -312.48899937 238.13142776 C-312.22893101 237.26743362 -311.96886265 236.40343948 -311.70091343 235.5132637 C-297.30251441 188.44089677 -271.6247275 144.79384668 -238.04759312 108.87752151 C-235.58250129 106.23178173 -233.18982937 103.533867 -230.80149937 100.81892776 C-227.63658372 97.29677296 -224.3719399 94.12950939 -220.75071812 91.08455276 C-218.48884442 89.13129396 -216.32630107 87.09106989 -214.16258335 85.03035355 C-158.40650129 32.29062568 -76.66646477 -0.11281222 0 0 Z M-117.48899937 221.13142776 C-145.36114675 254.42315936 -151.99020373 290.85665764 -151.87440203 333.30431833 C-151.86670326 337.3644421 -151.8766063 341.42453273 -151.88413203 345.48465163 C-151.89490727 352.58136904 -151.89467551 359.67801784 -151.88699055 366.77473831 C-151.87559359 377.3282616 -151.88146991 387.88172754 -151.89061547 398.4352505 C-151.90637729 417.289456 -151.90505762 436.14363092 -151.89637873 454.9978393 C-151.88882088 471.49846807 -151.88686716 487.99908566 -151.89044666 504.49971581 C-151.89067582 505.59583887 -151.89090497 506.69196194 -151.89114107 507.82130086 C-151.89207515 512.27125213 -151.89303035 516.72120339 -151.89402036 521.17115465 C-151.90318986 562.88428445 -151.894889 604.59739482 -151.87872967 646.31052161 C-151.8644947 683.33766676 -151.86576678 720.36478094 -151.88011265 757.39192581 C-151.89619086 799.02908587 -151.90253847 840.66622878 -151.89327586 882.30339152 C-151.89231376 886.74536899 -151.89137524 891.18734648 -151.89044666 895.62932396 C-151.89020943 896.72298563 -151.8899722 897.81664729 -151.88972778 898.94345023 C-151.88632117 915.42952963 -151.89029536 931.91559659 -151.89788532 948.40167427 C-151.90647646 967.155459 -151.9042902 985.90920848 -151.88804309 1004.66298883 C-151.87925855 1015.14754342 -151.87862391 1025.63202159 -151.88998161 1036.11657414 C-151.89674113 1043.13262551 -151.89246402 1050.148616 -151.87946731 1057.16465839 C-151.87237711 1061.15353137 -151.8697933 1065.14225328 -151.88068525 1069.13112115 C-151.99153522 1113.0246444 -143.8585306 1150.07630792 -113.48899937 1183.13142776 C-112.51060093 1184.2335762 -112.51060093 1184.2335762 -111.51243687 1185.35799026 C-88.1007516 1210.41983837 -53.54286124 1223.70259587 -19.8780916 1225.30309889 C-10.86356566 1225.55692889 -1.84819678 1225.54126829 7.16906564 1225.51683043 C11.26481535 1225.50911916 15.36053258 1225.51903945 19.45627749 1225.52656043 C26.6122953 1225.53732659 33.76824504 1225.53710961 40.92426586 1225.52941895 C51.56566836 1225.51801386 62.20701403 1225.52390236 72.84841621 1225.53304387 C91.85851326 1225.54879814 110.86857996 1225.54748932 129.87867985 1225.53880713 C146.51139908 1225.53124833 163.14410721 1225.52929602 179.77682781 1225.53287506 C180.8818571 1225.53310422 181.9868864 1225.53333337 183.12540142 1225.53356947 C187.61146793 1225.53450354 192.09753444 1225.53545875 196.58360094 1225.53644876 C238.62459266 1225.54561601 280.6655651 1225.53732016 322.70655385 1225.52115807 C360.03607378 1225.50691639 397.365563 1225.50820124 434.69508266 1225.52254105 C476.67024316 1225.53861168 518.64538665 1225.5449717 560.6205498 1225.53570426 C565.09638921 1225.53474215 569.57222863 1225.53380362 574.04806805 1225.53287506 C575.15007273 1225.53263783 576.25207742 1225.5324006 577.38747618 1225.53215618 C594.01160627 1225.52874713 610.63572403 1225.53272817 627.25985241 1225.54031372 C646.16195263 1225.54889589 665.06401786 1225.5467373 683.96611373 1225.53047149 C694.53837931 1225.5216733 705.11056908 1225.52107224 715.68283266 1225.53241001 C722.75089694 1225.53915266 729.81890063 1225.53492255 736.88695596 1225.52189571 C740.90960187 1225.51478258 744.93209754 1225.51227059 748.95473854 1225.52311365 C767.68398846 1225.56990186 785.71122265 1225.58348167 803.51100063 1218.94392776 C804.33930386 1218.64277054 805.16760708 1218.34161331 806.0210104 1218.03133011 C825.36953358 1210.83591904 841.09976962 1200.85319227 856.51100063 1187.13142776 C857.22771938 1186.49978714 857.94443813 1185.86814651 858.68287563 1185.21736526 C874.10830633 1170.7480563 884.10912849 1151.64992838 891.51100063 1132.13142776 C891.91318813 1131.09244339 892.31537563 1130.05345901 892.72975063 1128.98299026 C899.30627753 1110.79789695 898.94576421 1092.26464483 898.89020193 1073.21316128 C898.88162267 1069.11945706 898.89060663 1065.02578285 898.89726609 1060.93208021 C898.90652797 1053.77031428 898.90473201 1046.60861868 898.89553356 1039.44685364 C898.88189257 1028.7967597 898.88551274 1018.14671943 898.89249216 1007.49662154 C898.90440217 988.47196159 898.8993458 969.44733485 898.88721389 950.42267674 C898.87666909 933.77304936 898.8721395 917.12343327 898.87350941 900.47380257 C898.87359344 899.36850596 898.87367747 898.26320936 898.87376405 897.12441892 C898.87411631 892.63741574 898.87450032 888.15041257 898.87492962 883.66340941 C898.87889294 841.5884963 898.86618514 799.51360316 898.84540306 757.43869576 C898.82703548 720.07658381 898.82122067 682.71449101 898.82667446 645.35237503 C898.8270209 642.9534327 898.82736699 640.55449037 898.82771275 638.15554804 C898.82788375 636.96954363 898.82805474 635.78353921 898.82823092 634.56159527 C898.82908449 628.5911063 898.82990828 622.62061734 898.83069992 616.65012836 C898.830857 615.47218166 898.83101408 614.29423495 898.83117592 613.08059288 C898.83516815 581.84039064 898.82968742 550.60019023 898.82118863 519.35998911 C898.82028161 515.99748735 898.81937596 512.6349856 898.8184734 509.27248385 C898.81787229 507.04198965 898.81726367 504.81149546 898.81664749 502.58100126 C898.81242998 487.0459904 898.81184625 471.51098316 898.81375298 455.97597191 C898.81619838 435.95293812 898.81210467 415.92992372 898.79654298 395.90689523 C898.78850694 385.32377754 898.78588069 374.74069212 898.79118534 364.15757252 C898.79417088 357.08078635 898.78983321 350.00402862 898.77963676 342.92724925 C898.77403201 338.90035968 898.77147118 334.87353573 898.77780334 330.84664572 C899.13273677 302.53348442 899.13273677 302.53348442 894.01100063 274.81892776 C893.75745815 273.95847855 893.50391567 273.09802933 893.24269009 272.21150589 C882.26010439 236.87762271 857.10678752 207.37601908 824.51100063 190.13142776 C798.30431814 176.9499742 772.24528168 174.66833175 743.338068 174.73982374 C739.24239572 174.74659653 735.14676039 174.73583619 731.05109626 174.7274279 C723.88886904 174.7151094 716.72670737 174.71382763 709.56447315 174.71997833 C698.91350002 174.72910044 688.26258711 174.72101253 677.61161858 174.70968709 C658.58383792 174.69005244 639.55608454 174.68766662 620.52829616 174.69288229 C603.87459141 174.69744479 587.22089744 174.69683365 570.56719303 174.69104195 C568.33068986 174.69028507 566.09418669 174.68952909 563.85768351 174.688774 C560.48720782 174.68762877 557.11673212 174.68647889 553.74625643 174.68531476 C522.42352949 174.67461462 491.10080612 174.66987953 459.77807808 174.67778492 C458.59811612 174.67808209 457.41815416 174.67837927 456.20243578 174.67868544 C446.62117042 174.68113422 437.0399051 174.68374589 427.45863979 174.68636958 C390.08943896 174.69647122 352.72028308 174.68811618 315.35108852 174.66487503 C273.33525555 174.63878606 231.31944962 174.62595883 189.30360824 174.63306278 C184.82115734 174.63377881 180.33870644 174.6344532 175.85625553 174.63510323 C174.75261881 174.63527303 173.64898209 174.63544284 172.51190183 174.6356178 C155.87400965 174.63791788 139.23614264 174.62995769 122.59825611 174.61681175 C103.67057651 174.60188297 84.74295578 174.60108088 65.81527742 174.61888266 C55.23295179 174.62842661 44.6507636 174.62704982 34.06844723 174.60964797 C26.98715387 174.59912148 19.90596467 174.60331065 12.82468149 174.61912801 C8.79847633 174.62771953 4.77253947 174.63028451 0.74634858 174.61485869 C-44.67865212 174.45290694 -86.38664043 186.1101716 -117.48899937 221.13142776 Z " fill="#6258E8" transform="translate(426.48899936676025,99.86857223510742)"/>
<path d="M0 0 C0.89278112 -0.00235223 1.78556224 -0.00470446 2.70539734 -0.00712797 C5.71843797 -0.01382287 8.73143554 -0.0133596 11.74448299 -0.01294994 C13.91799086 -0.01624826 16.09149811 -0.01997376 18.26500458 -0.02409142 C24.25476231 -0.03412318 30.24451003 -0.03783011 36.23427498 -0.04048073 C42.68778576 -0.0443803 49.14128857 -0.05395887 55.59479427 -0.0626936 C70.45124398 -0.0818152 85.3076949 -0.09171554 100.16415394 -0.10015428 C107.50560583 -0.1043606 114.8470569 -0.10958263 122.1885081 -0.11483881 C147.31870658 -0.1327295 172.44890529 -0.14772541 197.57910919 -0.155159 C199.15687795 -0.15563375 200.73464672 -0.15610964 202.31241548 -0.15658666 C203.48606399 -0.15694122 203.48606399 -0.15694122 204.68342258 -0.15730295 C208.64761863 -0.15850415 212.61181467 -0.1597196 216.5760107 -0.16094494 C217.75607127 -0.16130516 217.75607127 -0.16130516 218.95997145 -0.16167267 C244.46532933 -0.16956511 269.9706407 -0.19299556 295.47597827 -0.22550088 C322.4409442 -0.25980369 349.40588291 -0.27951057 376.37087101 -0.28280324 C379.33143676 -0.28322078 382.29200251 -0.28370034 385.25256824 -0.28422642 C386.34603194 -0.28441121 386.34603194 -0.28441121 387.46158582 -0.28459973 C399.18999276 -0.28693122 410.91834567 -0.30258841 422.64673336 -0.32306826 C434.43775792 -0.3433307 446.22871204 -0.34846833 458.01975084 -0.33929763 C464.40687323 -0.33474633 470.79382024 -0.33668767 477.18091869 -0.35605907 C483.02938819 -0.37364378 488.87755377 -0.37273087 494.72602629 -0.35716178 C496.84049321 -0.3547786 498.95498091 -0.35914591 501.06941599 -0.37099043 C515.73070094 -0.44802426 527.00112274 0.00503436 538.06209469 10.69672108 C546.53692351 19.95818024 548.91083656 28.49969718 548.59334469 40.86859608 C548.01302398 51.71080185 543.17975787 58.90534785 535.29256344 66.13422108 C527.36114303 72.52967359 520.22437279 74.4413238 510.21598339 74.39148998 C508.87161941 74.39674909 508.87161941 74.39674909 507.50009656 74.40211445 C504.49329592 74.41142722 501.48668902 74.4065054 498.47988033 74.40164661 C496.30378237 74.40538293 494.12768574 74.40998437 491.95159125 74.41537726 C485.96859712 74.42762493 479.98565884 74.4273447 474.00265503 74.42498851 C467.55123753 74.42458079 461.09983805 74.43561518 454.64842892 74.44510365 C442.00769556 74.46215904 429.36697812 74.46723958 416.72623447 74.4683284 C406.45236926 74.46924757 396.17851011 74.47336467 385.90464687 74.47972965 C382.94707037 74.48152475 379.98949385 74.48330438 377.03191733 74.48507941 C376.29664905 74.4855215 375.56138076 74.4859636 374.80383161 74.48641909 C354.12242949 74.49872725 333.44102947 74.50662025 312.75962353 74.50573254 C311.97991283 74.50570138 311.20020212 74.50567022 310.39686382 74.50563812 C306.44498918 74.50547191 302.49311453 74.50527382 298.54123989 74.5050687 C297.75638729 74.50502881 296.9715347 74.50498892 296.16289869 74.50494782 C294.57573538 74.50486695 292.98857207 74.50478335 291.40140876 74.50469704 C266.70885344 74.50347159 242.01635304 74.51848377 217.32381344 74.54584217 C189.57995125 74.57656867 161.83612515 74.59377432 134.09224486 74.59191573 C131.13341093 74.59176647 128.174577 74.59166905 125.21574306 74.59160709 C124.12293862 74.59157213 124.12293862 74.59157213 123.00805731 74.59153646 C111.28818754 74.59147494 99.56836549 74.60424219 87.8485099 74.62147162 C76.06792875 74.63843202 64.28742321 74.64005584 52.50683644 74.62725298 C46.12577239 74.62071519 39.74488113 74.6206357 33.36383343 74.63795948 C27.5210292 74.65365889 21.67853526 74.65085823 15.83573875 74.63339122 C13.72338264 74.63031446 11.61100356 74.63397904 9.49867454 74.64511137 C-4.57830465 74.71437883 -16.90686797 74.3398431 -27.70743656 64.13422108 C-35.09596902 56.65484601 -38.80702753 47.35206633 -39.08243656 36.82172108 C-38.55710953 25.98247326 -34.45851181 17.21433667 -27.12931156 9.25140858 C-19.09725158 2.22983356 -10.34742372 -0.01841962 0 0 Z " fill="#E2E8F0" transform="translate(663.7074365615845,1037.8657789230347)"/>
<path d="M0 0 C1.24466515 -0.00352835 1.24466515 -0.00352835 2.51447505 -0.00712797 C5.30717074 -0.01380821 8.0998198 -0.01336004 10.89252281 -0.01294994 C12.91015137 -0.01624917 14.92777926 -0.01997486 16.94540632 -0.02409142 C22.49964498 -0.03411274 28.05387283 -0.03782843 33.60811925 -0.04048073 C39.59466909 -0.04438334 45.58121037 -0.05396165 51.56775475 -0.0626936 C65.34577622 -0.08152407 79.12379833 -0.09171379 92.901829 -0.10015428 C99.71133905 -0.10436192 106.52084822 -0.10958374 113.33035752 -0.11483881 C136.64286917 -0.13272791 159.95538107 -0.1477238 183.26789856 -0.155159 C184.73121848 -0.15563375 186.19453841 -0.15610964 187.65785833 -0.15658666 C188.38352758 -0.15682303 189.10919682 -0.15705941 189.85685604 -0.15730295 C193.53340765 -0.15850414 197.20995925 -0.15971959 200.88651085 -0.16094494 C201.61613099 -0.16118509 202.34575113 -0.16142524 203.09748097 -0.16167267 C226.75308878 -0.16956546 250.40864645 -0.19299743 274.06423237 -0.22550088 C299.07789202 -0.25980758 324.09152233 -0.27951089 349.10520589 -0.28280324 C351.85174903 -0.28322077 354.59829216 -0.28370033 357.34483528 -0.28422642 C358.35923965 -0.28441121 358.35923965 -0.28441121 359.39413704 -0.28459973 C370.27169364 -0.28693064 381.14919193 -0.30258441 392.02672776 -0.32306826 C402.96290782 -0.34333564 413.89902742 -0.3484661 424.83522423 -0.33929763 C430.75857275 -0.3347479 436.68173217 -0.33667858 442.60505486 -0.35605907 C448.0297454 -0.37365485 453.45410837 -0.3727219 458.87880222 -0.35716178 C460.83913558 -0.3547803 462.79949141 -0.35913719 464.75979038 -0.37099043 C478.36525915 -0.44814888 490.38141068 0.21357121 500.76297569 10.13422108 C508.68801549 18.87249433 512.21516541 27.42132395 512.03641319 39.29047108 C510.99505156 50.12063204 506.74774585 58.47912046 498.91922569 65.87640858 C487.84381219 75.00000741 475.48897502 74.70782435 461.89844322 74.63542652 C459.8742077 74.63932258 457.84997492 74.64496547 455.82574856 74.65219742 C450.28110781 74.66692578 444.73675181 74.65678627 439.19212031 74.6424607 C433.20570477 74.63134014 427.21932881 74.64329706 421.23291588 74.65230274 C410.19000851 74.66542492 399.14718782 74.66046033 388.10428595 74.64622746 C377.90304559 74.63316438 367.70183787 74.62798189 357.50058937 74.63054562 C356.48471788 74.63078624 356.48471788 74.63078624 355.44832372 74.63103172 C352.69902516 74.63169533 349.94972661 74.63239775 347.20042807 74.63315706 C321.42370179 74.6401771 295.64703299 74.62470266 269.87032133 74.59853361 C246.97628573 74.57541425 224.0823133 74.57003273 201.18826866 74.580266 C195.3243205 74.58286808 189.46037234 74.58545311 183.5964241 74.58786392 C182.51349257 74.58831009 182.51349257 74.58831009 181.40868363 74.58876528 C162.26863543 74.59638172 143.12859239 74.58996672 123.98854649 74.5791679 C121.92887539 74.57802012 119.86920429 74.57687694 117.80953319 74.57574108 C116.44325004 74.57498583 115.07696689 74.57422019 113.71068374 74.57344407 C103.51522723 74.56778858 93.31978708 74.56911374 83.12433052 74.57367229 C71.53174367 74.57878192 59.93921735 74.57261991 48.34664522 74.552778 C42.43164411 74.54290339 36.5167425 74.53780283 30.60173607 74.54567051 C25.18729083 74.55272508 19.77304644 74.5459277 14.35862769 74.52806688 C12.39986294 74.52402102 10.4410799 74.52502456 8.48232196 74.53158575 C5.81870559 74.53974443 3.1557646 74.52941335 0.49219131 74.51453781 C-0.26715051 74.52127546 -1.02649233 74.52801311 -1.80884451 74.53495494 C-11.91078987 74.42595021 -20.6869457 70.3882955 -27.99483681 63.47015858 C-35.43101528 55.28662548 -38.71828311 45.61197212 -38.41671181 34.63812733 C-37.66313909 24.13725526 -33.60992034 15.97185659 -25.86202431 8.75922108 C-17.68691407 1.94662921 -10.56313051 -0.02035684 0 0 Z " fill="#4F46E5" transform="translate(663.237024307251,487.86577892303467)"/>
<path d="M0 0 C0 10.66344622 -15.47006083 24.2850255 -22.58203125 31.6875 C-59.83098274 67.3915641 -113.05269355 73.98258559 -162.25561523 76.06585693 C-163.28428676 76.10951707 -164.31295828 76.15317721 -165.37280166 76.19816038 C-190.82126872 77.24734613 -216.26223436 77.28867301 -241.72850253 77.26333651 C-248.77421277 77.25675207 -255.81990394 77.26223776 -262.86561331 77.26774407 C-276.66068 77.27814804 -290.45572791 77.27741459 -304.25079629 77.27158624 C-316.32468039 77.2665115 -328.39855768 77.26526176 -340.47244263 77.26763153 C-341.28012174 77.2677843 -342.08780085 77.26793707 -342.91995508 77.26809447 C-346.20037134 77.26871737 -349.4807876 77.26935419 -352.76120386 77.270014 C-383.39814087 77.27610227 -414.03506607 77.27063264 -444.67200126 77.2598202 C-471.76148373 77.25033233 -498.85094738 77.25118172 -525.94042969 77.26074219 C-556.52911765 77.27150208 -587.1177952 77.27567011 -617.70648479 77.26951766 C-620.98017565 77.26887643 -624.25386651 77.26825074 -627.52755737 77.26763153 C-628.33334783 77.26747338 -629.1391383 77.26731522 -629.96934665 77.26715227 C-642.02173245 77.26489809 -654.07411062 77.26749856 -666.12649536 77.27259064 C-679.86058628 77.27836507 -693.59465584 77.27676252 -707.32874417 77.26602915 C-714.31005456 77.26074993 -721.29133031 77.25838172 -728.27264023 77.26532745 C-754.11601093 77.2881418 -779.9208418 77.16189139 -805.74438477 76.06585693 C-806.73100345 76.0240831 -807.71762214 75.98230928 -808.73413837 75.93926957 C-860.94048383 73.66589118 -914.5447147 64.71389546 -952 25 C-967 7.8435518 -967 7.8435518 -967 3 C-964.28055165 4.27987149 -961.96061249 5.68072545 -959.6015625 7.5390625 C-958.96476562 8.03317627 -958.32796875 8.52729004 -957.671875 9.03637695 C-956.99640625 9.56062256 -956.3209375 10.08486816 -955.625 10.625 C-923.42096553 35.11104484 -889.76006321 39.4922305 -850.341935 39.38540266 C-846.24618528 39.3776914 -842.15046805 39.38761169 -838.05472314 39.39513266 C-830.89870534 39.40589883 -823.74275559 39.40568184 -816.58673477 39.39799118 C-805.94533228 39.38658609 -795.3039866 39.39247459 -784.66258442 39.4016161 C-765.65248738 39.41737038 -746.64242068 39.41606155 -727.63232079 39.40737936 C-710.99960155 39.39982057 -694.36689342 39.39786826 -677.73417282 39.4014473 C-676.62914353 39.40167645 -675.52411424 39.40190561 -674.38559921 39.40214171 C-669.8995327 39.40307578 -665.41346619 39.40403098 -660.92739969 39.405021 C-618.88640797 39.41418825 -576.84543553 39.40589239 -534.80444678 39.38973031 C-497.47492686 39.37548863 -460.14543763 39.37677348 -422.81591797 39.39111328 C-380.84075747 39.40718391 -338.86561398 39.41354393 -296.89045084 39.40427649 C-292.41461142 39.40331438 -287.93877201 39.40237586 -283.46293259 39.4014473 C-282.3609279 39.40121006 -281.25892322 39.40097283 -280.12352445 39.40072841 C-263.49939437 39.39731937 -246.8752766 39.4013004 -230.25114822 39.40888596 C-211.349048 39.41746813 -192.44698277 39.41530954 -173.5448869 39.39904372 C-162.97262133 39.39024554 -152.40043155 39.38964448 -141.82816797 39.40098225 C-134.76010369 39.4077249 -127.6921 39.40349478 -120.62404467 39.39046794 C-116.60139876 39.38335481 -112.5789031 39.38084282 -108.55626209 39.39168589 C-89.82701217 39.4384741 -71.79977799 39.4520539 -54 32.8125 C-53.17169678 32.51134277 -52.34339355 32.21018555 -51.48999023 31.89990234 C-32.12397106 24.69798479 -14.72624764 14.72624764 0 0 Z " fill="#5F52CB" transform="translate(1284,1285)"/>
<path d="M0 0 C1.97984262 -0.00668677 1.97984262 -0.00668677 3.99968207 -0.01350862 C5.46302645 -0.01341933 6.92637083 -0.01322949 8.38971519 -0.01294994 C9.94536632 -0.01625022 11.50101659 -0.01997613 13.05666578 -0.02409142 C17.33392848 -0.03410079 21.61117715 -0.0378265 25.88844991 -0.04048073 C30.50075516 -0.04438689 35.11304934 -0.05396496 39.72534752 -0.0626936 C50.86467865 -0.08244833 62.00401068 -0.09252258 73.14335495 -0.10142139 C78.38989799 -0.10580557 83.63644002 -0.11117201 88.88298225 -0.11641026 C106.32468074 -0.13342091 123.7663786 -0.14791524 141.20808411 -0.155159 C145.7334207 -0.15706887 150.25875728 -0.1589892 154.78409386 -0.16094494 C155.90883332 -0.16142868 157.03357278 -0.16191242 158.19239525 -0.16241082 C176.41381567 -0.17071175 194.63517046 -0.19605047 212.85656221 -0.22852562 C231.56639026 -0.26159932 250.27618495 -0.27960801 268.98604238 -0.28280324 C279.49002235 -0.28496795 289.99390658 -0.29371111 300.49785805 -0.31926441 C309.44305495 -0.34097556 318.38813285 -0.34901973 327.33335312 -0.33929763 C331.89574399 -0.33475427 336.45788934 -0.33664134 341.02024651 -0.35605907 C345.20148474 -0.37370075 349.38229853 -0.37268499 353.56354134 -0.35716178 C355.07165816 -0.35478724 356.57980445 -0.35910129 358.08787628 -0.37099043 C371.0691441 -0.46694578 380.74709533 1.4804878 390.28165245 10.69672108 C398.75648127 19.95818024 401.13039432 28.49969718 400.81290245 40.86859608 C400.23258175 51.71080185 395.39931563 58.90534785 387.5121212 66.13422108 C380.50197322 71.78681119 373.8929492 74.38176664 364.77256012 74.38869667 C364.12897433 74.39190315 363.48538853 74.39510963 362.82230014 74.39841327 C360.67496122 74.40668634 358.52790319 74.4007986 356.38055992 74.39491749 C354.82175637 74.3979394 353.2629543 74.40182909 351.70415485 74.40651006 C347.42752531 74.41679362 343.15097958 74.41460732 338.87434316 74.41032946 C334.25938147 74.40786289 329.64443999 74.41687555 325.0294857 74.42436695 C315.990917 74.4371179 306.95237799 74.43890715 297.9138018 74.43656669 C290.56707404 74.43478381 283.2203553 74.43653252 275.87362862 74.44079113 C274.828089 74.44138632 273.78254939 74.44198151 272.70532676 74.44259473 C270.58132308 74.44380648 268.45731939 74.44502062 266.33331572 74.44623711 C246.41318598 74.45711418 226.49307317 74.45494937 206.57294248 74.44885226 C188.35030817 74.44368298 170.12772732 74.45493855 151.90510358 74.47395048 C133.19295811 74.49332344 114.48083793 74.50158583 95.76868236 74.49782723 C85.26370159 74.49591436 74.75876631 74.49841112 64.25379372 74.51254177 C55.31079169 74.52444962 46.36786316 74.52586713 37.42486013 74.5137516 C32.86274843 74.50785875 28.30077122 74.50677476 23.73866844 74.51875401 C19.56013565 74.5295985 15.38184988 74.52652654 11.20332871 74.51249232 C9.69396667 74.50984144 8.18458535 74.51222422 6.6752422 74.52022818 C-6.33499945 74.58441681 -16.52145544 72.67576853 -26.2456913 63.47015858 C-33.68186978 55.28662548 -36.96913761 45.61197212 -36.6675663 34.63812733 C-35.91399358 24.13725526 -31.86077484 15.97185659 -24.1128788 8.75922108 C-16.56653156 2.47059838 -9.81820764 0.01539842 0 0 Z " fill="#7375F2" transform="translate(661.4878787994385,762.8657789230347)"/>
<path d="M0 0 C18.79192775 16.06997721 29.46440889 35.89235503 32.8046875 60.3984375 C34.20039066 84.60851925 27.57111945 107.36173362 11.2421875 125.7734375 C9.77198294 127.32365319 8.29353603 128.86611894 6.8046875 130.3984375 C6.24265625 131.02234375 5.680625 131.64625 5.1015625 132.2890625 C-9.06383438 147.55468439 -30.82843407 155.27632047 -51.18359375 156.671875 C-66.85842912 157.24825395 -80.81552678 153.30715264 -95.1953125 147.3984375 C-95.1953125 146.7384375 -95.1953125 146.0784375 -95.1953125 145.3984375 C-96.26072266 145.26888672 -96.26072266 145.26888672 -97.34765625 145.13671875 C-109.91343691 141.87892377 -123.27866992 126.04794838 -129.60546875 115.3125 C-130.13011719 114.35085938 -130.65476562 113.38921875 -131.1953125 112.3984375 C-131.81277344 111.27179688 -132.43023437 110.14515625 -133.06640625 108.984375 C-140.09325807 95.75810534 -142.37360927 83.44916013 -142.3828125 68.5859375 C-142.39505859 67.55662109 -142.40730469 66.52730469 -142.41992188 65.46679688 C-142.43245852 58.85998465 -141.77120009 52.81153388 -140.1953125 46.3984375 C-139.93492187 45.30015625 -139.67453125 44.201875 -139.40625 43.0703125 C-133.11644933 21.08540175 -117.37860292 2.45995846 -97.56640625 -8.671875 C-66.09604883 -25.71325959 -27.97291634 -22.21155688 0 0 Z " fill="#0EA876" transform="translate(530.1953125,731.6015625)"/>
<path d="M0 0 C18.79192775 16.06997721 29.46440889 35.89235503 32.8046875 60.3984375 C34.20039066 84.60851925 27.57111945 107.36173362 11.2421875 125.7734375 C9.77198294 127.32365319 8.29353603 128.86611894 6.8046875 130.3984375 C6.24265625 131.02234375 5.680625 131.64625 5.1015625 132.2890625 C-9.06383438 147.55468439 -30.82843407 155.27632047 -51.18359375 156.671875 C-66.85842912 157.24825395 -80.81552678 153.30715264 -95.1953125 147.3984375 C-95.1953125 146.7384375 -95.1953125 146.0784375 -95.1953125 145.3984375 C-96.26072266 145.26888672 -96.26072266 145.26888672 -97.34765625 145.13671875 C-109.91343691 141.87892377 -123.27866992 126.04794838 -129.60546875 115.3125 C-130.13011719 114.35085938 -130.65476562 113.38921875 -131.1953125 112.3984375 C-131.81277344 111.27179688 -132.43023437 110.14515625 -133.06640625 108.984375 C-140.09325807 95.75810534 -142.37360927 83.44916013 -142.3828125 68.5859375 C-142.39505859 67.55662109 -142.40730469 66.52730469 -142.41992188 65.46679688 C-142.43245852 58.85998465 -141.77120009 52.81153388 -140.1953125 46.3984375 C-139.93492187 45.30015625 -139.67453125 44.201875 -139.40625 43.0703125 C-133.11644933 21.08540175 -117.37860292 2.45995846 -97.56640625 -8.671875 C-66.09604883 -25.71325959 -27.97291634 -22.21155688 0 0 Z " fill="#0EA876" transform="translate(530.1953125,456.6015625)"/>
<path d="M0 0 C3.63739213 3.08515873 7.04529744 6.3705285 10.41943359 9.73974609 C11.07685547 10.38556641 11.73427734 11.03138672 12.41162109 11.69677734 C29.10455927 29.3512903 34.11875919 52.18216158 33.73583984 75.76708984 C32.88937587 98.17536403 21.97813849 118.15836087 6.41943359 133.73974609 C5.76201172 134.40876953 5.10458984 135.07779297 4.42724609 135.76708984 C-3.5407147 143.30758493 -13.66554342 148.24714381 -23.83056641 152.11474609 C-24.45511719 152.35330322 -25.07966797 152.59186035 -25.72314453 152.83764648 C-34.79326568 156.10889586 -43.66166551 157.10555061 -53.26806641 157.05224609 C-54.31953857 157.04733154 -55.37101074 157.04241699 -56.4543457 157.03735352 C-69.1642444 156.84712938 -80.2437724 154.704696 -91.58056641 148.73974609 C-92.49451172 148.28599609 -93.40845703 147.83224609 -94.35009766 147.36474609 C-101.09906448 143.89115198 -106.88705791 139.74818202 -112.58056641 134.73974609 C-113.34240234 134.07330078 -114.10423828 133.40685547 -114.88916016 132.72021484 C-128.95178509 119.58372465 -139.73939343 98.55492646 -140.70458984 79.26049805 C-141.17929164 62.28111796 -140.64771304 47.0719083 -132.58056641 31.73974609 C-132.12681641 30.82580078 -131.67306641 29.91185547 -131.20556641 28.97021484 C-127.7319723 22.22124802 -123.58900234 16.43325459 -118.58056641 10.73974609 C-117.91412109 9.97791016 -117.24767578 9.21607422 -116.56103516 8.43115234 C-87.22380472 -22.97438005 -33.70615939 -26.87537763 0 0 Z M-107.17431641 25.65380859 C-119.36771424 41.05813453 -124.71637055 59.2515407 -122.58056641 78.73974609 C-119.33173209 97.76529384 -109.87787442 113.73607775 -94.70556641 125.67724609 C-79.27248692 136.53018586 -60.9280997 141.53127819 -42.19580078 138.33251953 C-22.73987865 134.19075432 -6.9125213 124.02967821 4.55615234 107.69677734 C14.65849672 91.66433563 18.14585902 72.9740913 14.3371582 54.44384766 C9.84021648 35.55989309 -2.28950735 20.00505015 -18.58056641 9.73974609 C-48.8836446 -7.46886328 -84.46814074 0.14355702 -107.17431641 25.65380859 Z " fill="#CBD5E1" transform="translate(528.58056640625,1005.26025390625)"/>
<path d="M0 0 C1.31622433 3.948673 0.34956398 4.98804547 -1.4375 8.6875 C-1.99566406 9.84765625 -2.55382813 11.0078125 -3.12890625 12.203125 C-3.75223921 13.46892978 -4.37594691 14.73455009 -5 16 C-5.63426893 17.30721679 -6.2683814 18.6145095 -6.90234375 19.921875 C-15.57661728 37.67180791 -25.54763063 54.46693301 -38.1484375 69.73828125 C-40.71803583 72.8770944 -43.13369833 76.12855264 -45.5546875 79.3828125 C-46.03164062 79.91648437 -46.50859375 80.45015625 -47 81 C-47.66 81 -48.32 81 -49 81 C-49.26176025 81.58628174 -49.52352051 82.17256348 -49.79321289 82.77661133 C-51.06747191 85.12431048 -52.42738878 86.68581889 -54.30859375 88.57421875 C-54.96754639 89.23728027 -55.62649902 89.9003418 -56.30541992 90.58349609 C-57.36079956 91.62497803 -57.36079956 91.62497803 -58.4375 92.6875 C-59.16106689 93.40502441 -59.88463379 94.12254883 -60.63012695 94.86181641 C-66.16358329 100.29385985 -71.84627995 105.27530057 -78 110 C-79.00160156 110.79535156 -80.00320313 111.59070312 -81.03515625 112.41015625 C-86.72240083 116.9028875 -92.54184965 121.15173915 -98.5625 125.1875 C-99.40893066 125.75682251 -99.40893066 125.75682251 -100.27246094 126.33764648 C-101.4295981 127.1014027 -102.59633204 127.85080837 -103.77198792 128.58573914 C-105.38372643 129.608812 -106.97161815 130.66977958 -108.54338074 131.75326538 C-116.35699129 136.82557404 -122.21006246 137.96976283 -131.421875 137.68359375 C-132.64787415 137.67368912 -133.87387329 137.66378448 -135.13702393 137.65357971 C-139.00929187 137.61474949 -142.87860542 137.52697716 -146.75 137.4375 C-149.39318791 137.40234605 -152.03642074 137.37041428 -154.6796875 137.34179688 C-161.12078033 137.26509019 -167.56017905 137.14831633 -174 137 C-171.91495741 134.91495741 -170.81178354 134.42823788 -168.08984375 133.4765625 C-167.27749268 133.18410645 -166.4651416 132.89165039 -165.62817383 132.59033203 C-164.74025146 132.27177246 -163.8523291 131.95321289 -162.9375 131.625 C-119.95239443 115.69960371 -78.90206833 90.06449187 -47 57 C-44.42050641 54.4035917 -41.82384825 51.82827665 -39.203125 49.2734375 C-32.64669451 42.86145579 -26.64405858 36.24520994 -21 29 C-20.21109375 28.00484375 -19.4221875 27.0096875 -18.609375 25.984375 C-12.00937928 17.59362214 -5.97223607 8.8448135 0 0 Z " fill="#000000" transform="translate(1446,1346)"/>
<path d="M0 0 C4.02563581 3.90613641 7.67756243 8.04360531 11.3125 12.3125 C15.51951936 17.21781683 19.79184363 21.94650683 24.44140625 26.44140625 C26 28 26 28 28 30.5625 C30.2853855 33.34781358 32.80923861 35.52731437 35.546875 37.859375 C37.93412766 39.94251904 40.23858161 42.09126027 42.54223633 44.26538086 C49.35363952 50.670465 56.44692707 56.48796448 64 62 C64.63921387 62.46905762 65.27842773 62.93811523 65.93701172 63.42138672 C94.12289355 84.00597126 125.12010077 100.28998002 158 112 C158 112.33 158 112.66 158 113 C150.39202957 113.30849741 142.78571075 113.51611669 135.17285156 113.65917969 C132.59281178 113.71891175 130.01316702 113.80033439 127.43457031 113.90527344 C108.80154255 114.64364517 96.85674308 112.43791221 82 101 C80.46555106 99.88454043 78.92790374 98.77346628 77.38696289 97.66699219 C74.08657246 95.2874199 70.86099646 92.82765074 67.66455078 90.31054688 C66.20121638 89.15842323 64.72465561 88.02314047 63.24609375 86.890625 C52.59820124 78.61842601 41.92836399 69.1174689 33 59 C33 58.34 33 57.68 33 57 C32.34 57 31.68 57 31 57 C27.71606887 53.58563235 24.89516729 49.74584371 22 46 C21.45134277 45.29246582 20.90268555 44.58493164 20.33740234 43.85595703 C-1.29015189 15.7718801 -1.29015189 15.7718801 -0.28125 2.09765625 C-0.1884375 1.40542969 -0.095625 0.71320313 0 0 Z " fill="#000000" transform="translate(170,1370)"/>
<path d="M0 0 C3.73328797 0.04161308 4.58861488 0.25732335 7.75 2.5625 C9.82916606 5.48632728 10.75 6.81016708 10.75 10.375 C8.72628528 17.60255258 3.55970063 22.79228082 -1.25 28.375 C-2.20740447 29.49577504 -3.16442429 30.61687876 -4.12109375 31.73828125 C-6.14280266 34.1040121 -8.16935433 36.46548283 -10.19921875 38.82421875 C-23.07578415 53.77779468 -23.07578415 53.77779468 -35.41015625 69.17578125 C-36.09980469 70.06652344 -36.78945313 70.95726562 -37.5 71.875 C-38.10328125 72.6690625 -38.7065625 73.463125 -39.328125 74.28125 C-42.62483924 77.87279234 -45.05497699 79.21056915 -49.92285156 79.88037109 C-55.56489671 79.7708246 -58.4714909 76.34139783 -62.25 72.5078125 C-62.9711499 71.79905975 -63.6922998 71.09030701 -64.43530273 70.3600769 C-65.95107949 68.8584761 -67.45670049 67.34656278 -68.95263672 65.82519531 C-71.23997901 63.51014239 -73.57114805 61.24707374 -75.91015625 58.984375 C-77.3805097 57.51592439 -78.84805652 56.04465702 -80.3125 54.5703125 C-81.00923828 53.90009064 -81.70597656 53.22986877 -82.42382812 52.53933716 C-86.02971283 48.79108179 -87.68023447 46.3210635 -87.7734375 41.02294922 C-87.60291959 37.96166658 -87.33347537 36.52380392 -85.8125 33.8125 C-81.95304785 31.64744148 -78.67805145 30.76040423 -74.25 31.375 C-71.01538483 33.10242214 -68.75663661 35.73265377 -66.25 38.375 C-64.3200741 40.31869596 -62.38023558 42.25220384 -60.43994141 44.18554688 C-59.07176649 45.55339827 -57.70936348 46.92704927 -56.35302734 48.30664062 C-55.72348145 48.94537109 -55.09393555 49.58410156 -54.4453125 50.2421875 C-53.87828613 50.82081543 -53.31125977 51.39944336 -52.72705078 51.99560547 C-51.27889834 53.47872935 -51.27889834 53.47872935 -49.25 54.375 C-49.03472656 53.85035156 -48.81945312 53.32570313 -48.59765625 52.78515625 C-46.72138895 49.42962894 -44.21506735 46.68416687 -41.6875 43.8125 C-40.59144897 42.55164893 -39.49640511 41.28992167 -38.40234375 40.02734375 C-37.86335449 39.40585449 -37.32436523 38.78436523 -36.76904297 38.14404297 C-34.71864567 35.75619681 -32.73066779 33.32085215 -30.75 30.875 C-5.85473919 0.2520252 -5.85473919 0.2520252 0 0 Z " fill="#FCFEFD" transform="translate(515.25,758.625)"/>
<path d="M0 0 C3.73328797 0.04161308 4.58861488 0.25732335 7.75 2.5625 C9.82916606 5.48632728 10.75 6.81016708 10.75 10.375 C8.72628528 17.60255258 3.55970063 22.79228082 -1.25 28.375 C-2.20740447 29.49577504 -3.16442429 30.61687876 -4.12109375 31.73828125 C-6.14280266 34.1040121 -8.16935433 36.46548283 -10.19921875 38.82421875 C-23.07578415 53.77779468 -23.07578415 53.77779468 -35.41015625 69.17578125 C-36.09980469 70.06652344 -36.78945313 70.95726562 -37.5 71.875 C-38.10328125 72.6690625 -38.7065625 73.463125 -39.328125 74.28125 C-42.62483924 77.87279234 -45.05497699 79.21056915 -49.92285156 79.88037109 C-55.56489671 79.7708246 -58.4714909 76.34139783 -62.25 72.5078125 C-62.9711499 71.79905975 -63.6922998 71.09030701 -64.43530273 70.3600769 C-65.95107949 68.8584761 -67.45670049 67.34656278 -68.95263672 65.82519531 C-71.23997901 63.51014239 -73.57114805 61.24707374 -75.91015625 58.984375 C-77.3805097 57.51592439 -78.84805652 56.04465702 -80.3125 54.5703125 C-81.00923828 53.90009064 -81.70597656 53.22986877 -82.42382812 52.53933716 C-86.02971283 48.79108179 -87.68023447 46.3210635 -87.7734375 41.02294922 C-87.60291959 37.96166658 -87.33347537 36.52380392 -85.8125 33.8125 C-81.95304785 31.64744148 -78.67805145 30.76040423 -74.25 31.375 C-71.01538483 33.10242214 -68.75663661 35.73265377 -66.25 38.375 C-64.3200741 40.31869596 -62.38023558 42.25220384 -60.43994141 44.18554688 C-59.07176649 45.55339827 -57.70936348 46.92704927 -56.35302734 48.30664062 C-55.72348145 48.94537109 -55.09393555 49.58410156 -54.4453125 50.2421875 C-53.87828613 50.82081543 -53.31125977 51.39944336 -52.72705078 51.99560547 C-51.27889834 53.47872935 -51.27889834 53.47872935 -49.25 54.375 C-49.03472656 53.85035156 -48.81945312 53.32570313 -48.59765625 52.78515625 C-46.72138895 49.42962894 -44.21506735 46.68416687 -41.6875 43.8125 C-40.59144897 42.55164893 -39.49640511 41.28992167 -38.40234375 40.02734375 C-37.86335449 39.40585449 -37.32436523 38.78436523 -36.76904297 38.14404297 C-34.71864567 35.75619681 -32.73066779 33.32085215 -30.75 30.875 C-5.85473919 0.2520252 -5.85473919 0.2520252 0 0 Z " fill="#FCFEFD" transform="translate(515.25,483.625)"/>
<path d="M0 0 C0.33 0 0.66 0 1 0 C1.08121924 1.60332791 1.13929134 3.20784026 1.1875 4.8125 C1.23970703 6.15248047 1.23970703 6.15248047 1.29296875 7.51953125 C0.95081002 10.41647515 0.24606427 11.22555028 -2 13 C-1.48041715 8.62065881 -0.94324258 4.31196609 0 0 Z " fill="#7961DB" transform="translate(1325,1198)"/>
</svg>
